#!OML:ASF H:\GeneralSubjects\Female5\Project 1\Capture day 1\Session 1\Female5.ASF
:FULLY-SPECIFIED
:DEGREES
263
root -24.0801 15.8855 7.53493 -174.823 -23.8312 -167.05
lowerback 6.1848 2.09753 4.06444
upperback -10.1624 2.94148 1.48207
thorax -14.5412 0.777129 -1.09513
lowerneck -15.3503 3.91692 4.04702
upperneck 45.0581 0.513062 -2.13314
head 20.4809 -1.06708 -2.35168
rclavicle -1.19271e-015 -2.38542e-015
rhumerus -29.057 43.2086 -92.5603
rradius 50.1293
rwrist -2.58022
rhand -37.7418 -7.43616
rfingers 7.12502
rthumb -10.7902 -37.139
lclavicle -1.19271e-015 -2.38542e-015
lhumerus -25.4931 -26.6618 94.1695
lradius 64.2567
lwrist -0.407424
lhand -34.4556 29.7183
lfingers 7.12502
lthumb -7.61933 59.561
rfemur 13.3482 29.2622 40.854
rtibia -15.9012
rfoot -32.0716 -27.6389
rtoes 4.23447
lfemur -9.97063 -32.5447 9.40871
ltibia 0.394872
lfoot -26.4352 25.171
ltoes -63.3304
264
root -23.8686 15.8564 7.51044 -175.33 -24.8216 -166.376
lowerback 6.31315 1.96771 3.92976
upperback -10.152 2.79672 1.87735
thorax -14.648 0.748156 -0.558696
lowerneck -15.838 3.57057 3.66006
upperneck 44.6971 0.250407 -2.03805
head 20.3454 -1.16493 -2.25265
rclavicle 2.87244e-014 1.27222e-014
rhumerus -30.1537 43.9706 -92.705
rradius 48.5142
rwrist -2.8977
rhand -35.5764 -8.83212
rfingers 7.12502
rthumb -8.70105 -38.6328
lclavicle 2.87244e-014 1.27222e-014
lhumerus -26.7922 -26.8402 94.7111
lradius 66.4531
lwrist -0.623598
lhand -34.6861 28.9977
lfingers 7.12502
lthumb -7.84182 58.8323
rfemur 13.0023 27.5958 41.4202
rtibia -16.5554
rfoot -30.9152 -26.5455
rtoes 6.11439
lfemur -13.0951 -26.282 11.5145
ltibia 3.80242
lfoot -21.823 21.0241
ltoes -64.3635
265
root -23.6587 15.8158 7.49055 -175.867 -25.7375 -165.746
lowerback 6.5757 1.85798 3.75084
upperback -10.1159 2.6865 2.27977
thorax -14.8094 0.742659 0.00201098
lowerneck -16.5738 3.18829 3.23412
upperneck 44.5195 -0.0988017 -1.94751
head 20.4151 -1.30762 -2.18565
rclavicle 5.96354e-015 4.69132e-014
rhumerus -31.4104 44.5108 -92.8149
rradius 46.9479
rwrist -3.37344
rhand -33.0878 -10.3498
rfingers 7.12502
rthumb -6.29901 -40.2362
lclavicle 5.96354e-015 4.69132e-014
lhumerus -28.2066 -27.0647 95.2818
lradius 68.2735
lwrist -0.802312
lhand -34.6962 28.2742
lfingers 7.12502
lthumb -7.85152 58.1084
rfemur 12.7365 25.9733 41.9287
rtibia -17.2608
rfoot -29.4865 -25.7165
rtoes 7.27401
lfemur -16.0638 -20.6333 13.0868
ltibia 7.52399
lfoot -18.4562 17.7644
ltoes -65.1378
266
root -23.4526 15.7647 7.47541 -176.427 -26.5894 -165.03
lowerback 6.89017 1.76729 3.6738
upperback -10.0691 2.62118 2.71756
thorax -14.9879 0.74924 0.539097
lowerneck -17.3891 2.77775 2.88832
upperneck 44.275 -0.41113 -2.03422
head 20.4671 -1.43788 -2.21313
rclavicle 8.05078e-015 -2.78299e-014
rhumerus -32.7704 44.813 -92.8873
rradius 45.4002
rwrist -4.0173
rhand -30.6177 -11.8835
rfingers 7.12502
rthumb -3.91393 -41.8273
lclavicle 8.05078e-015 -2.78299e-014
lhumerus -29.7325 -27.271 95.8794
lradius 69.6594
lwrist -0.919953
lhand -34.5317 27.6198
lfingers 7.12502
lthumb -7.69275 57.4599
rfemur 12.4693 24.4174 42.5034
rtibia -17.947
rfoot -27.9129 -25.0845
rtoes 7.63282
lfemur -18.8771 -15.465 14.3568
ltibia 11.1956
lfoot -15.9864 15.6645
ltoes -65.8743
267
root -23.2538 15.7061 7.46434 -177.002 -27.4021 -164.139
lowerback 7.16604 1.68894 3.80761
upperback -10.0216 2.59847 3.2095
thorax -15.1351 0.753654 1.01586
lowerneck -18.0382 2.39933 2.66049
upperneck 43.7202 -0.54342 -2.30096
head 20.2612 -1.48801 -2.28896
rclavicle 2.06736e-014 7.15625e-014
rhumerus -34.2281 44.8567 -92.9207
rradius 43.8588
rwrist -4.83492
rhand -28.4923 -13.3322
rfingers 7.12502
rthumb -1.86142 -43.3038
lclavicle 2.06736e-014 7.15625e-014
lhumerus -31.3532 -27.3774 96.5034
lradius 70.5344
lwrist -1.00705
lhand -34.29 27.0336
lfingers 7.12502
lthumb -7.45948 56.8821
rfemur 12.0946 22.9252 43.1897
rtibia -18.5165
rfoot -26.3727 -24.4751
rtoes 7.48906
lfemur -21.5291 -10.6266 15.4473
ltibia 14.5514
lfoot -14.0879 14.8029
ltoes -66.3703
268
root -23.0646 15.6434 7.45532 -177.55 -28.1836 -163.096
lowerback 7.32179 1.62458 4.12588
upperback -9.9821 2.60778 3.75056
thorax -15.211 0.751787 1.44451
lowerneck -18.3852 2.06878 2.5427
upperneck 42.6974 -0.468184 -2.71196
head 19.6684 -1.44138 -2.37023
rclavicle -2.73329e-014 -1.19271e-014
rhumerus -35.7517 44.6553 -92.9099
rradius 42.2765
rwrist -5.84365
rhand -26.9563 -14.714
rfingers 7.12502
rthumb -0.377861 -44.6934
lclavicle -2.73329e-014 -1.19271e-014
lhumerus -33.0549 -27.3331 97.1737
lradius 70.79
lwrist -1.01105
lhand -34.0492 26.502
lfingers 7.12502
lthumb -7.22709 56.3586
rfemur 11.4595 21.5106 43.9441
rtibia -18.732
rfoot -25.0175 -23.714
rtoes 7.18517
lfemur -24.0054 -5.98394 16.3218
ltibia 17.4394
lfoot -12.5314 15.1358
ltoes -66.7472
269
root -22.8879 15.5828 7.44616 -178.067 -28.9514 -162.055
lowerback 7.38927 1.56724 4.50002
upperback -9.93317 2.62196 4.29812
thorax -15.2176 0.744564 1.85159
lowerneck -18.3054 1.81874 2.55854
upperneck 41.101 -0.160072 -3.29003
head 18.6424 -1.28736 -2.45795
rclavicle 2.36554e-014 -2.14687e-014
rhumerus -37.3033 44.1573 -92.8439
rradius 40.5852
rwrist -7.02919
rhand -26.1205 -16.0645
rfingers 7.12502
rthumb 0.429398 -46.0438
lclavicle 2.36554e-014 -2.14687e-014
lhumerus -34.7727 -27.0648 97.8834
lradius 70.2914
lwrist -1.05028
lhand -33.7157 26.2253
lfingers 7.12502
lthumb -6.90511 56.0927
rfemur 10.5758 20.1381 44.6719
rtibia -18.4347
rfoot -23.9794 -22.7088
rtoes 7.10754
lfemur -26.2294 -1.6492 16.7739
ltibia 19.7808
lfoot -11.2438 16.6676
ltoes -67.1141
270
root -22.7258 15.5308 7.43559 -178.529 -29.7291 -161.217
lowerback 7.44062 1.50704 4.75403
upperback -9.85825 2.60957 4.79906
thorax -15.1844 0.737254 2.27831
lowerneck -17.8707 1.65013 2.6279
upperneck 39.0282 0.287619 -3.92883
head 17.3408 -1.06284 -2.51989
rclavicle 9.88954e-015 1.51076e-014
rhumerus -38.8543 43.305 -92.6863
rradius 38.7391
rwrist -8.38865
rhand -25.9681 -17.3827
rfingers 7.12502
rthumb 0.576543 -47.3616
lclavicle 9.88954e-015 1.51076e-014
lhumerus -36.4149 -26.5411 98.6129
lradius 68.8715
lwrist -1.09148
lhand -33.2841 26.0249
lfingers 7.12502
lthumb -6.48845 55.9055
rfemur 9.56383 18.7519 45.2382
rtibia -17.677
rfoot -23.2599 -21.5038
rtoes 7.39084
lfemur -28.1407 2.16408 16.5867
ltibia 21.5169
lfoot -10.147 19.4217
ltoes -67.5602
271
root -22.5784 15.4938 7.42392 -178.912 -30.5384 -160.733
lowerback 7.5654 1.43667 4.74634
upperback -9.75249 2.55277 5.21454
thorax -15.1652 0.738037 2.76136
lowerneck -17.2497 1.54953 2.67978
upperneck 36.7181 0.766111 -4.53604
head 15.9877 -0.814747 -2.54972
rclavicle 5.90887e-014 1.98785e-014
rhumerus -40.3778 42.0676 -92.3997
rradius 36.7136
rwrist -9.8897
rhand -26.3811 -18.6364
rfingers 7.12502
rthumb 0.17766 -48.616
lclavicle 5.90887e-014 1.98785e-014
lhumerus -37.877 -25.7515 99.3217
lradius 66.39
lwrist -1.09437
lhand -32.7073 26.0414
lfingers 7.12502
lthumb -5.93164 55.9383
rfemur 8.54254 17.3127 45.5861
rtibia -16.5671
rfoot -22.8108 -20.2191
rtoes 7.78576
lfemur -29.6983 5.25036 15.639
ltibia 22.5898
lfoot -12.6771 21.7303
ltoes -64.9106
